<?xml version="1.0" encoding="iso-8859-1"?>
<!-- Uploaded to: SVG Repo, www.svgrepo.com, Generator: SVG Repo Mixer Tools -->
<svg height="800px" width="800px" version="1.1" id="Layer_1" xmlns="http://www.w3.org/2000/svg" xmlns:xlink="http://www.w3.org/1999/xlink" 
	 viewBox="0 0 512 512" xml:space="preserve">
<path style="fill:#CAA661;" d="M111.539,47.507c12.148,15.741,9.564,38.352-5.552,51.003c-0.389,0.331-0.784,0.655-1.198,0.97
	c-16.177,12.439-39.601,9.407-52.062-6.741L33.93,68.383c-12.461-16.147-9.422-39.529,6.747-51.969
	C56.852,3.975,80.28,7.006,92.741,23.152L111.539,47.507z M471.321,16.414c-16.175-12.439-39.603-9.407-52.064,6.738L400.46,47.506
	c-12.148,15.741-9.564,38.352,5.552,51.003c0.389,0.331,0.784,0.655,1.198,0.97c16.177,12.439,39.601,9.407,52.062-6.741
	l18.797-24.356C490.529,52.236,487.49,28.854,471.321,16.414z"/>
<path style="fill:#825934;" d="M94.217,60.874c4.9,6.35,3.879,15.706-2.274,20.856l-0.132,0.112
	c-0.097,0.083-0.195,0.166-0.298,0.245l-0.062,0.047c-6.555,5.041-16.357,3.777-21.402-2.765L51.252,55.016
	c-2.45-3.175-3.511-7.147-2.987-11.186c0.524-4.045,2.568-7.622,5.75-10.072c2.712-2.086,5.98-3.092,9.237-3.092
	c4.615,0,9.208,2.021,12.168,5.855L94.217,60.874z M463.733,43.83c-0.524-4.045-2.568-7.622-5.75-10.072
	c-2.712-2.086-5.98-3.092-9.237-3.092c-4.615,0-9.208,2.021-12.168,5.855l-18.797,24.354c-4.9,6.35-3.879,15.706,2.274,20.856
	l0.132,0.112c0.097,0.083,0.195,0.166,0.298,0.245l0.062,0.047c6.555,5.041,16.357,3.777,21.402-2.765l18.797-24.355
	C463.196,51.841,464.256,47.869,463.733,43.83z"/>
<path style="fill:#CAEEC5;" d="M169.648,174.723c8.877-39.438,44.168-68.906,86.346-68.906c42.185,0,77.473,29.467,86.352,68.906
	c13.8-8.876,30.232-14.03,47.867-14.03c48.875,0,88.503,39.557,88.503,88.351s-39.628,88.351-88.503,88.351
	c-13.668,0-26.607-3.096-38.164-8.616v142.113H159.949V328.778c-11.558,5.522-24.497,8.616-38.167,8.616
	c-48.879,0-88.501-39.557-88.501-88.351s39.621-88.351,88.501-88.351C139.416,160.695,155.847,165.848,169.648,174.723
	L169.648,174.723z"/>
<path style="fill:#BCDDB6;" d="M478.709,249.325c-0.152,48.663-39.714,88.069-88.496,88.069c-13.668,0-26.607-3.097-38.164-8.616
	v142.113H159.949V328.778c-11.558,5.522-24.497,8.616-38.167,8.616c-48.784,0-88.34-39.406-88.493-88.069
	c58.512,37.411,136.744,60.281,222.71,60.281S420.196,286.736,478.709,249.325z"/>
<path style="fill:#FF4328;" d="M352.049,402.598v68.292H159.949v-68.292H352.049z"/>
<path style="fill:#C13421;" d="M352.049,398.769v28.36H159.949v-28.36H352.049z"/>
<path d="M390.213,151.941c-5.25,0-10.457,0.428-15.579,1.254l33.442-42.753c6.628,3.582,14.018,5.45,21.723,5.451
	c0.001,0,0.002,0,0.003,0c14.398,0,27.664-6.491,36.397-17.807l18.798-24.356c7.454-9.659,10.691-21.676,9.115-33.837
	c-1.576-12.168-7.776-22.97-17.455-30.417C468.596,3.277,458.938,0,448.729,0c-14.401,0-27.668,6.49-36.401,17.804L393.53,42.159
	c-13.356,17.305-12.497,41.023,1.001,57.189l-47.485,60.706c-6.065-16.074-16.387-30.463-29.883-41.377
	c-17.231-13.936-38.955-21.61-61.169-21.61c-22.212,0-43.935,7.675-61.165,21.61c-13.495,10.914-23.816,25.301-29.881,41.374
	l-47.487-60.709c13.505-16.195,14.351-39.89,1.005-57.183L99.67,17.805C90.937,6.49,77.669,0,63.268,0
	C53.059,0,43.402,3.277,35.34,9.477c-9.678,7.446-15.876,18.247-17.453,30.415c-1.576,12.161,1.661,24.178,9.115,33.838L45.8,98.085
	c8.732,11.318,22,17.808,36.399,17.808c7.71,0,15.104-1.872,21.725-5.449l33.441,42.752c-5.123-0.826-10.331-1.254-15.582-1.254
	c-53.625,0-97.253,43.559-97.253,97.103s43.626,97.102,97.25,97.102c10.115,0,19.964-1.514,29.415-4.514v60.965v7.836l-68.38,87.421
	c-2.978,3.807-2.306,9.308,1.502,12.286c1.601,1.252,3.501,1.859,5.386,1.859c2.6,0,5.174-1.153,6.9-3.36l54.594-69.794v32.045
	c0,4.833,3.919,8.752,8.752,8.752h192.102c4.834,0,8.752-3.919,8.752-8.752v-32.045l54.594,69.794c1.726,2.207,4.299,3.36,6.9,3.36
	c1.886,0,3.785-0.607,5.386-1.859c3.808-2.978,4.48-8.479,1.502-12.286l-68.382-87.421v-7.836v-60.966
	c9.452,3,19.3,4.515,29.412,4.515c53.627,0,97.255-43.559,97.255-97.103S443.841,151.941,390.213,151.941z M407.387,52.854
	l18.797-24.355c5.393-6.987,13.61-10.995,22.544-10.995c6.316,0,12.283,2.022,17.255,5.846c5.969,4.592,9.793,11.265,10.768,18.792
	c0.975,7.52-1.019,14.94-5.612,20.892l-18.798,24.356c-5.393,6.99-13.61,10.998-22.541,10.997c-6.314,0-12.281-2.023-17.282-5.867
	c-0.289-0.22-0.565-0.447-0.889-0.724C400.139,82.181,398.237,64.711,407.387,52.854z M59.656,87.391L40.858,63.036
	c-4.595-5.954-6.587-13.373-5.613-20.894c0.976-7.527,4.799-14.2,10.766-18.791c4.976-3.826,10.942-5.848,17.257-5.848
	c8.935,0,17.151,4.007,22.544,10.996l18.797,24.354c9.15,11.857,7.249,29.328-4.29,38.985c-0.274,0.233-0.551,0.462-0.866,0.702
	c-4.976,3.826-10.942,5.848-17.256,5.848C73.267,98.389,65.049,94.381,59.656,87.391z M343.297,462.138H168.7V411.35h174.598
	L343.297,462.138L343.297,462.138z M390.213,328.643c-12.036,0-23.608-2.611-34.392-7.762c-2.711-1.295-5.898-1.108-8.44,0.494
	c-2.542,1.603-4.084,4.398-4.084,7.403v65.068H168.7v-65.069c0-3.005-1.543-5.8-4.084-7.403c-2.542-1.603-5.728-1.79-8.44-0.493
	c-10.782,5.15-22.353,7.762-34.394,7.762c-43.973,0-79.748-35.708-79.748-79.599s35.774-79.598,79.748-79.598
	c15.362,0,30.277,4.371,43.133,12.639c2.404,1.546,5.41,1.822,8.053,0.737c2.644-1.083,4.593-3.389,5.22-6.176
	c8.096-35.969,40.819-62.076,77.809-62.076s69.715,26.107,77.813,62.076c0.628,2.788,2.576,5.093,5.221,6.176
	c2.642,1.082,5.65,0.807,8.053-0.737c12.855-8.269,27.771-12.639,43.133-12.639c43.974,0,79.751,35.708,79.751,79.598
	C469.965,292.935,434.188,328.643,390.213,328.643z"/>
</svg>