<?xml version="1.0" encoding="iso-8859-1"?>
<!-- Uploaded to: SVG Repo, www.svgrepo.com, Generator: SVG Repo Mixer Tools -->
<svg version="1.1" id="Layer_1" xmlns="http://www.w3.org/2000/svg" xmlns:xlink="http://www.w3.org/1999/xlink" 
	 viewBox="0 0 512 512" xml:space="preserve">
<polygon style="fill:#9F633C;" points="268.4,404 240,404 240,132 267.6,132.8 "/>
<path style="fill:#140500;" d="M268.4,408H240c-2.4,0-4-1.6-4-4V132c0-1.2,0.4-2,1.2-2.8s2-1.2,2.8-1.2l27.6,0.8c2,0,4,2,4,4
	L272,404c0,1.2-0.4,2-1.2,2.8C270.4,407.6,269.6,408,268.4,408z M244,400h20.4L264,136.4l-19.6-0.4v264H244z"/>
<polygon style="fill:#895129;" points="158.8,404 128.4,404 240,265.6 240,310 "/>
<path style="fill:#140500;" d="M158.8,408h-30.4c-1.6,0-2.8-0.8-3.6-2.4c-0.8-1.2-0.4-3.2,0.4-4.4l111.6-138.4
	c1.2-1.2,2.8-2,4.4-1.2c1.6,0.4,2.8,2,2.8,3.6V310c0,0.8-0.4,2-0.8,2.8l-81.2,94C160.8,407.6,160,408,158.8,408z M136.8,400h20
	l79.2-91.2v-32L136.8,400z"/>
<polyline style="fill:#895129;" points="268,264 268,309.2 350,404 380,404 326.8,340.8 "/>
<path style="fill:#140500;" d="M380,408h-30.4c-1.2,0-2.4-0.4-3.2-1.2l-82-94.8c-0.8-0.8-0.8-1.6-0.8-2.8V264c0-2.4,1.6-4,4-4
	s4,1.6,4,4v44l79.6,92h20l-47.6-56.4c-1.6-1.6-1.2-4.4,0.4-5.6c1.6-1.6,4.4-1.2,5.6,0.4l53.2,63.2c1.2,1.2,1.2,2.8,0.4,4.4
	S381.6,408,380,408z"/>
<rect x="4" y="108" style="fill:#895129;" width="504" height="24"/>
<path style="fill:#140500;" d="M508,136H4c-2.4,0-4-1.6-4-4v-24c0-2.4,1.6-4,4-4h504c2.4,0,4,1.6,4,4v24
	C512,134.4,510.4,136,508,136z M8,128h496v-16H8V128z"/>
</svg>